HIERARCHY
ROOT root
{
	OFFSET	0	13.1	24.9
	CHANNELS 6  Xposition Yposition Zposition Xrotation Yrotation Zrotation
	JOINT spine_1
	{
		OFFSET	0	9.99999	0
		CHANNELS 3  Xrotation Yrotation Zrotation
		JOINT spine_2
		{
			OFFSET	0	112	-10
			CHANNELS 3  Xrotation Yrotation Zrotation
			JOINT spine_3
			{
				OFFSET	0	206.5	19.3
				CHANNELS 3  Xrotation Yrotation Zrotation
				JOINT spine_4
				{
					OFFSET	0	110.4	14.6
					CHANNELS 3  Xrotation Yrotation Zrotation
					JOINT neck_1
					{
						OFFSET	0	71.8	-50.3
						CHANNELS 3  Xrotation Yrotation Zrotation
						JOINT neck_2
						{
							OFFSET	0	86.2	-25.8
							CHANNELS 3  Xrotation Yrotation Zrotation
							JOINT head_ee
							{
								OFFSET	0	179.8	-8.7
								CHANNELS 3  Xrotation Yrotation Zrotation
								End Site
								{
									OFFSET	1	0	0
								}
							}
						}
					}
					JOINT left_clavicle
					{
						OFFSET	-43.2	22.4	-70.8
						CHANNELS 3  Xrotation Yrotation Zrotation
						JOINT left_shoulder
						{
							OFFSET	-93.9	-5.79999	48.7
							CHANNELS 3  Xrotation Yrotation Zrotation
							JOINT left_elbow
							{
								OFFSET	-291.4	-30.8	15.2
								CHANNELS 3  Xrotation Yrotation Zrotation
								JOINT left_lowarm_twist
								{
									OFFSET	-110.7	-3.89999	13.6
									CHANNELS 3  Xrotation Yrotation Zrotation
									JOINT left_hand
									{
										OFFSET	-110.7	-3.89999	13.6
										CHANNELS 3  Xrotation Yrotation Zrotation
										JOINT left_ee
										{
											OFFSET	-80.8	-5.10001	12.1
											CHANNELS 3  Xrotation Yrotation Zrotation
											End Site
											{
												OFFSET	1	0	0
											}
										}
									}
								}
							}
						}
					}
					JOINT right_clavicle
					{
						OFFSET	43.2	22.4	-70.8
						CHANNELS 3  Xrotation Yrotation Zrotation
						JOINT right_shoulder
						{
							OFFSET	93.9	-5.79999	48.7
							CHANNELS 3  Xrotation Yrotation Zrotation
							JOINT right_elbow
							{
								OFFSET	291.4	-30.8	15.2
								CHANNELS 3  Xrotation Yrotation Zrotation
								JOINT right_lowarm_twist
								{
									OFFSET	110.7	-3.89999	13.6
									CHANNELS 3  Xrotation Yrotation Zrotation
									JOINT right_hand
									{
										OFFSET	110.7	-3.89999	13.6
										CHANNELS 3  Xrotation Yrotation Zrotation
										JOINT right_ee
										{
											OFFSET	80.8	-5.10001	12.1
											CHANNELS 3  Xrotation Yrotation Zrotation
											End Site
											{
												OFFSET	1	0	0
											}
										}
									}
								}
							}
						}
					}
				}
			}
		}
	}
	JOINT left_hip
	{
		OFFSET	-82.8	-127.5	0.300001
		CHANNELS 3  Xrotation Yrotation Zrotation
		JOINT left_knee
		{
			OFFSET	-28.2	-396.7	2.2
			CHANNELS 3  Xrotation Yrotation Zrotation
			JOINT left_ankle
			{
				OFFSET	-11.7	-411.3	35.4
				CHANNELS 3  Xrotation Yrotation Zrotation
				JOINT left_toes
				{
					OFFSET	0	-60	-88.6
					CHANNELS 3  Xrotation Yrotation Zrotation
					JOINT left_foot_ee
					{
						OFFSET	-22.5	-16.5	-42.2
						CHANNELS 3  Xrotation Yrotation Zrotation
						End Site
						{
							OFFSET	1	0	0
						}
					}
				}
			}
		}
	}
	JOINT right_hip
	{
		OFFSET	82.8	-127.5	0.300001
		CHANNELS 3  Xrotation Yrotation Zrotation
		JOINT right_knee
		{
			OFFSET	28.2	-396.7	2.2
			CHANNELS 3  Xrotation Yrotation Zrotation
			JOINT right_ankle
			{
				OFFSET	11.7	-411.3	35.4
				CHANNELS 3  Xrotation Yrotation Zrotation
				JOINT right_toes
				{
					OFFSET	0	-60	-88.6
					CHANNELS 3  Xrotation Yrotation Zrotation
					JOINT right_foot_ee
					{
						OFFSET	22.5	-16.5	-42.2
						CHANNELS 3  Xrotation Yrotation Zrotation
						End Site
						{
							OFFSET	1	0	0
						}
					}
				}
			}
		}
	}
}
MOTION
Frames: 16
Frame Time: 0.02
3462.72 732.883 -797.171 -29.7108 47.4393 13.6795 7.661 0.899035 4.7077 7.67312 0.597998 4.75522 7.70287 0.230163 4.78707 7.67225 0.982465 4.69104 0.303517 5.2824 -6.95226 0.688616 15.0903 -7.02557 -0.0 0.0 -0.0 0.0937231 22.4139 2.7306 -29.3237 -36.5565 57.6868 0.890775 -23.8098 0.187799 -36.862 -2.62379 3.8263 0.823752 1.21514 6.00539 -0.0 0.0 -0.0 7.62975 10.1973 -14.7168 -1.35293 -23.4493 -79.947 0.308959 8.70174 -0.0235067 -44.6171 3.45503 -4.37219 -3.52171 -6.14355 20.9387 0.0 0.0 0.0 22.5432 -3.64146 10.8629 1.2889 -0.0552175 -0.190073 19.2602 27.7249 -2.81704 11.1236 -0.0 -0.0 -0.0 0.0 -0.0 35.0284 4.02195 17.1932 -16.3186 -0.321306 -2.4752 7.21296 12.5245 1.10523 2.79668 -0.0 -0.0 0.0 0.0 0.0 
3458.47 732.108 -796.971 -29.3922 46.9798 13.3671 7.68416 0.839144 4.56859 7.6956 0.54705 4.6126 7.72086 0.191626 4.64091 7.692 0.9214 4.55274 0.266337 4.92169 -7.23187 0.6527 14.6787 -7.35893 -0.0 0.0 -0.0 0.20527 22.7122 2.91758 -30.5275 -36.338 59.0735 0.786015 -21.2743 0.147628 -36.6426 -2.60138 3.80925 0.720318 1.51432 5.43523 -0.0 0.0 -0.0 7.48963 9.83317 -14.4317 -1.66859 -22.2587 -80.0757 0.372838 10.4644 -0.0341423 -44.9196 3.48889 -4.39118 -3.38816 -5.83654 20.17 0.0 0.0 0.0 22.068 -2.91295 10.9358 1.47915 -0.0637302 -0.218025 21.1503 27.9381 -3.07414 11.2415 -0.0 -0.0 -0.0 0.0 -0.0 34.8658 3.93873 17.083 -16.278 -0.321387 -2.46896 8.65102 11.4043 1.30936 2.62166 -0.0 -0.0 0.0 0.0 0.0 
3459.02 733.073 -800.373 -29.2418 47.1893 13.123 7.66375 0.821962 4.56108 7.67516 0.530379 4.60401 7.69914 0.173847 4.63114 7.67035 0.902305 4.54589 -0.174989 5.31164 -5.66787 0.110737 14.0897 -5.54946 -0.0 0.0 -0.0 -0.0454807 22.5529 2.5514 -31.1062 -37.196 58.7796 0.791628 -21.4125 0.149671 -36.4367 -2.58043 3.79317 0.695842 1.70942 5.35114 -0.0 0.0 -0.0 7.85559 9.69106 -15.2147 -0.901394 -21.036 -80.0987 0.443212 12.3833 -0.048083 -45.6633 3.57258 -4.43709 -3.07965 -4.92704 18.5041 0.0 0.0 0.0 21.7893 -2.28051 10.9019 1.25217 -0.0535842 -0.184673 21.3601 28.1424 -3.10616 11.029 -0.0 -0.0 -0.0 0.0 -0.0 34.656 3.57219 17.056 -16.3157 -0.321312 -2.47475 9.47739 10.2518 1.42029 2.01634 -0.0 -0.0 0.0 0.0 0.0 
3452.93 729.055 -802.947 -27.3436 45.6556 10.9597 7.60508 0.879027 4.57369 7.61652 0.586528 4.62022 7.64524 0.224381 4.65183 7.61633 0.955465 4.55837 -0.338131 6.56918 -5.31757 -0.0209072 16.0478 -5.02054 -0.0 0.0 -0.0 -1.01406 23.5839 1.34427 -30.4843 -37.962 59.9352 0.790188 -21.3771 0.149146 -36.2039 -2.55679 3.77491 0.864501 0.903832 6.15187 -0.0 0.0 -0.0 8.32948 9.54307 -16.2302 -0.998257 -19.914 -80.6119 0.525795 14.5993 -0.067353 -46.3742 3.65312 -4.47996 -2.74879 -3.51779 16.9358 0.0 0.0 0.0 21.7493 -1.8134 10.7739 -2.21691 0.0849103 0.329605 24.6811 28.1057 -3.5368 11.616 -0.0 -0.0 -0.0 0.0 -0.0 34.6174 3.28421 16.7939 -16.776 -0.32009 -2.54537 9.97071 8.9783 1.48101 2.42031 -0.0 -0.0 0.0 0.0 0.0 
3451.33 727.293 -804.415 -26.6949 45.7595 10.214 7.45019 0.904512 4.57466 7.46162 0.611901 4.6228 7.4929 0.237152 4.65702 7.46396 0.968894 4.56148 -0.508045 8.00467 -4.41006 -0.181268 17.8829 -3.8658 -0.0 0.0 -0.0 -1.62462 23.5902 0.511808 -28.7648 -38.6447 60.9147 0.765093 -20.7569 0.140125 -36.0372 -2.53992 3.76177 1.137 0.755574 7.92226 -0.0 0.0 -0.0 8.60753 9.40453 -16.829 -1.16422 -19.3712 -80.2697 0.60416 16.6617 -0.0884705 -47.7293 3.80809 -4.55891 -2.24295 -0.947961 14.7058 0.0 0.0 0.0 22.2349 -1.14725 11.1665 -4.63657 0.16294 0.692726 27.1757 27.39 -3.83073 11.8039 -0.0 -0.0 -0.0 0.0 -0.0 34.4595 3.06351 16.9202 -17.3199 -0.317915 -2.62879 11.227 8.323 1.65392 2.64726 -0.0 -0.0 0.0 0.0 0.0 
3448.83 727.099 -802.876 -25.9636 45.8469 9.4247 7.3999 0.930238 4.55379 7.4112 0.638898 4.60361 7.44477 0.26179 4.64028 7.4161 0.990589 4.54107 -0.715969 8.75207 -4.00767 -0.382544 18.9067 -3.32005 -0.0 0.0 -0.0 -1.67442 23.4204 0.41686 -27.6552 -39.4967 62.1791 0.7395 -20.1191 0.131188 -36.0765 -2.54389 3.76487 1.36859 0.802316 9.50354 -0.0 0.0 -0.0 9.01061 10.4829 -17.6721 -1.46049 -18.7361 -80.2765 0.637069 17.515 -0.098141 -48.5479 3.90259 -4.60481 -1.83099 0.956826 12.7668 0.0 0.0 0.0 22.3338 -0.573191 11.1822 -6.4827 0.212116 0.971763 27.3061 27.0517 -3.83813 11.7247 -0.0 -0.0 -0.0 0.0 -0.0 34.2145 2.84 17.4447 -17.6363 -0.316286 -2.6773 11.4983 7.73704 1.68717 2.81176 -0.0 -0.0 0.0 0.0 0.0 
3443.61 725.785 -799.271 -26.6093 47.0615 10.4244 7.39622 0.916102 4.42616 7.4069 0.632887 4.47535 7.43956 0.265804 4.51198 7.41249 0.974353 4.41373 -1.01818 9.3644 -3.44669 -0.697519 19.5744 -2.59973 -0.0 0.0 -0.0 -2.0589 23.4926 -0.0981338 -26.1332 -40.3306 63.1946 0.74419 -20.2364 0.132806 -36.1125 -2.54753 3.76771 1.46066 0.670512 10.074 -0.0 0.0 -0.0 9.33037 9.65215 -18.3814 -1.81472 -18.2328 -79.6103 0.680892 18.639 -0.111739 -48.9158 3.94527 -4.625 -1.63964 1.66655 11.7799 0.0 0.0 0.0 22.5477 -0.345468 11.3362 -6.78721 0.219361 1.01793 28.5249 26.6767 -3.97584 11.9826 -0.0 -0.0 -0.0 0.0 -0.0 34.1828 2.6651 18.0408 -18.2053 -0.312681 -2.76453 12.7556 7.13493 1.85691 3.07613 -0.0 -0.0 0.0 0.0 0.0 
3439.14 726.213 -798.721 -26.8476 48.0124 10.8109 7.41346 0.887206 4.39401 7.424 0.60609 4.44143 7.45441 0.242938 4.47593 7.4277 0.946097 4.38173 -1.22737 9.72853 -3.68694 -0.883697 20.4344 -2.78228 -0.0 0.0 -0.0 -2.35108 23.4449 -0.507115 -25.3435 -40.8873 63.7147 0.739724 -20.1247 0.131265 -36.014 -2.53757 3.75993 1.57229 0.57558 10.7935 -0.0 0.0 -0.0 9.38797 10.7655 -18.4845 -2.09887 -18.2488 -78.2963 0.690608 18.8862 -0.114865 -49.3564 3.99655 -4.64882 -1.36124 2.66724 10.3273 0.0 0.0 0.0 22.6073 1.10786 11.4069 -7.9741 0.245257 1.19822 27.4443 26.3883 -3.83859 11.3893 -0.0 -0.0 -0.0 0.0 -0.0 33.6908 2.37914 18.4066 -18.5523 -0.310058 -2.8177 13.1378 7.22983 1.91036 2.8104 -0.0 -0.0 0.0 0.0 0.0 
3434.97 723.712 -796.127 -26.7014 48.2305 10.952 7.41173 0.853337 4.21876 7.42144 0.583408 4.2644 7.44959 0.234285 4.29768 7.42498 0.909478 4.20704 -1.24312 10.2823 -2.85629 -0.916824 20.7713 -1.82674 -0.0 0.0 -0.0 -2.51435 23.9528 -0.637969 -24.3584 -41.2197 64.8286 0.754054 -20.4825 0.136238 -36.1189 -2.54818 3.76821 1.64538 0.504222 11.2622 -0.0 0.0 -0.0 9.30468 9.64464 -18.3259 -2.1834 -17.6869 -78.4036 0.713959 19.4774 -0.122537 -49.68 4.03433 -4.66606 -1.26729 3.42996 10.0257 0.0 0.0 0.0 22.7003 -0.03585 11.5523 -8.62207 0.257817 1.29686 28.7178 26.1012 -3.98428 11.7603 -0.0 -0.0 -0.0 0.0 -0.0 33.6928 2.31395 18.7434 -18.8777 -0.307305 -2.86756 13.2325 6.68318 1.91861 3.15967 -0.0 -0.0 0.0 0.0 0.0 
3428.73 721.204 -789.732 -27.6305 49.3069 12.0832 7.42404 0.794512 4.13775 7.43341 0.529842 4.17982 7.45735 0.188202 4.20901 7.43365 0.850004 4.12672 -1.10903 10.4382 -3.385 -0.738746 21.4613 -2.40247 -0.0 0.0 -0.0 -2.46636 23.4454 -0.665286 -23.384 -41.7761 65.4351 0.765333 -20.7628 0.14021 -36.1128 -2.54756 3.76773 1.71248 0.440679 11.694 -0.0 0.0 -0.0 9.10104 10.4459 -17.8688 -2.70091 -17.2273 -77.8682 0.729257 19.8624 -0.127687 -50.035 4.07589 -4.68473 -1.08865 4.25222 9.16984 0.0 0.0 0.0 23.3323 0.0144817 12.2593 -8.9885 0.264425 1.3527 28.7665 26.4355 -3.99848 11.8123 -0.0 -0.0 -0.0 0.0 -0.0 33.8385 2.64465 19.3368 -19.3631 -0.302673 -2.94189 13.8496 6.56011 2.00182 3.28693 -0.0 -0.0 0.0 0.0 0.0 
3422.24 721.428 -785.17 -28.4871 50.1838 12.8123 7.44949 0.769368 4.15778 7.45896 0.503478 4.19821 7.48094 0.162101 4.22514 7.45699 0.82677 4.14676 -0.801216 10.3478 -5.00683 -0.313466 22.5703 -4.22655 -0.0 0.0 -0.0 -2.04918 22.6011 -0.236153 -22.9948 -42.1374 65.7133 0.72746 -19.8173 0.127077 -36.0041 -2.53657 3.75915 1.78344 0.82706 12.3321 -0.0 0.0 -0.0 9.36433 12.1389 -18.3963 -3.16177 -17.7837 -76.7785 0.7211 19.6573 -0.124929 -50.827 4.16901 -4.72545 -0.493644 5.20721 5.54265 0.0 0.0 0.0 23.4468 1.74849 12.7972 -9.29827 0.269733 1.39994 28.0439 27.0348 -3.92724 10.8064 -0.0 -0.0 -0.0 0.0 -0.0 34.157 2.92857 20.0268 -19.9436 -0.296307 -3.03072 12.8072 5.20878 1.84865 3.03145 -0.0 -0.0 0.0 0.0 0.0 
3415.79 720.708 -781.015 -28.2694 50.7061 12.9556 7.42897 0.773096 4.02903 7.43785 0.515369 4.06997 7.4605 0.182892 4.09834 7.43802 0.827327 4.01827 -0.544418 10.0374 -5.84436 0.00251151 22.6705 -5.22289 -0.0 0.0 -0.0 -1.77954 22.1263 0.0633985 -22.4448 -41.6328 65.5794 0.72288 -19.7021 0.125528 -35.9015 -2.52621 3.75104 1.83443 1.22692 12.8389 -0.0 0.0 -0.0 9.52449 12.4348 -18.7379 -4.10732 -17.597 -75.0142 0.716274 19.5358 -0.12331 -50.546 4.13591 -4.71116 -0.339001 5.26078 4.51921 0.0 0.0 0.0 22.8278 4.29662 12.9481 -9.52899 0.27352 1.43514 28.3705 26.6026 -3.95547 11.7127 -0.0 -0.0 -0.0 0.0 -0.0 33.9341 2.54798 19.9996 -20.1743 -0.293526 -3.06603 12.7317 3.12719 1.82435 2.71353 -0.0 -0.0 0.0 0.0 0.0 
3415.68 720.077 -778.594 -28.1848 51.2579 12.9188 7.31059 0.753821 4.00263 7.31936 0.497809 4.04239 7.34101 0.159084 4.06978 7.31879 0.799316 3.9938 -2.73056 10.1924 -6.45945 -2.26877 23.5194 -5.39086 -0.0 0.0 -0.0 -1.65088 21.3221 0.117549 -21.7751 -41.6808 64.764 0.734036 -19.9823 0.129315 -35.4963 -2.48542 3.7188 1.93758 0.915309 13.4221 -0.0 0.0 -0.0 9.87647 13.4136 -19.4808 -5.41109 -16.6755 -74.4486 0.807929 21.8124 -0.155676 -50.8012 4.16597 -4.72415 0.12895 6.24117 1.77693 0.0 0.0 0.0 22.752 5.7529 13.0698 -9.69351 0.276134 1.46025 27.5226 25.5553 -3.82834 11.0728 -0.0 -0.0 -0.0 0.0 -0.0 34.1656 2.79604 20.2712 -20.2889 -0.292093 -3.08354 11.8935 4.03028 1.71531 2.6411 -0.0 -0.0 0.0 0.0 0.0 
3409.44 720.206 -774.932 -28.904 52.39 13.8155 7.45961 0.601361 3.94936 7.46822 0.349038 3.97956 7.47904 0.0253426 3.99473 7.45738 0.655421 3.94076 -2.02444 10.3247 -5.93166 -1.54674 23.3232 -4.96762 -0.0 0.0 -0.0 -1.74104 20.7685 -0.100565 -21.9794 -42.0327 64.2815 0.748427 -20.3422 0.134275 -35.2774 -2.46349 3.70126 1.98021 1.03973 13.7639 -0.0 0.0 -0.0 10.2437 14.1978 -20.267 -8.03431 -13.2452 -73.1366 0.847007 22.7619 -0.170496 -51.0108 4.1907 -4.73472 0.75977 7.92339 -1.76662 0.0 0.0 0.0 22.5951 7.13511 13.2154 -10.0635 0.281749 1.51675 27.0206 24.0628 -3.73549 10.5703 -0.0 -0.0 -0.0 0.0 -0.0 34.1948 2.76083 20.3972 -20.6007 -0.288014 -3.13122 10.0963 -1.19362 1.44444 2.05478 -0.0 -0.0 0.0 0.0 0.0 
3406.68 719.71 -770.23 -28.2569 51.9817 13.1086 7.44389 0.73902 4.01919 7.45274 0.481987 4.05798 7.47296 0.151398 4.08366 7.45058 0.793913 4.00872 -3.24571 10.2237 -6.65176 -2.80425 23.7372 -5.47381 -0.0 0.0 -0.0 -1.81901 20.4676 -0.262565 -21.2081 -42.0369 64.763 0.736561 -20.0455 0.130179 -35.1084 -2.4466 3.68767 1.9833 0.916273 13.7364 -0.0 0.0 -0.0 10.5955 14.5874 -21.0372 -7.99248 -15.3088 -72.3454 0.852512 22.8946 -0.172632 -51.306 4.22559 -4.74946 0.842572 6.74654 -2.82554 0.0 0.0 0.0 22.1578 8.54276 13.4739 -10.19 0.283585 1.53607 27.0765 24.3868 -3.74895 10.138 -0.0 -0.0 -0.0 0.0 -0.0 34.0735 2.8151 20.4355 -20.2552 -0.292518 -3.07839 9.94369 1.11148 1.43128 2.21671 -0.0 -0.0 0.0 0.0 0.0 
3398.94 718.747 -766.27 -27.7301 52.1745 12.7182 7.36079 0.713095 3.84073 7.36888 0.467443 3.87825 7.388 0.145638 3.90356 7.36755 0.759848 3.83177 -3.77656 10.266 -7.21325 -3.33143 24.2515 -5.93798 -0.0 0.0 -0.0 -1.54899 20.2556 0.0979116 -21.2456 -42.1791 64.6472 0.736232 -20.0373 0.130066 -35.0026 -2.43605 3.67914 2.02509 0.677034 13.929 -0.0 0.0 -0.0 10.5039 14.869 -20.8216 -9.26905 -14.3208 -72.3312 0.879463 23.5406 -0.183257 -51.5055 4.24922 -4.75931 1.01906 6.93815 -3.93758 0.0 0.0 0.0 21.4976 9.41013 13.8341 -10.5154 0.288111 1.58579 26.8859 25.0687 -3.74062 10.169 -0.0 -0.0 -0.0 0.0 -0.0 34.1317 2.35402 20.4739 -20.7427 -0.28607 -3.15292 8.87709 -0.178788 1.27837 1.9281 -0.0 -0.0 0.0 0.0 0.0 
